<?xml version="1.0" encoding="utf-8"?>
<!-- Generator: Adobe Illustrator 25.2.1, SVG Export Plug-In . SVG Version: 6.00 Build 0)  -->
<svg version="1.1" id="Capa_1" xmlns="http://www.w3.org/2000/svg" xmlns:xlink="http://www.w3.org/1999/xlink" x="0px" y="0px"
	 viewBox="0 0 558 140.1" style="enable-background:new 0 0 558 140.1;" xml:space="preserve">
<style type="text/css">
	.st0{fill:#FFFFFF;}
</style>
<path class="st0" d="M117.4,1.7C54.4,1.7,3,55.1,3,120.9V135h12.9v-14.1c0-58.3,45.6-105.7,101.6-105.7s101.6,47.4,101.6,105.7V135
	H232v-14.1C232,55.2,180.6,1.7,117.4,1.7 M36.5,125.2v9.8h12.8v-9.8c0-24.3,10.5-46.6,26.5-57.1c11.8-7.7,25.3-8.1,38.9-1l2.9,1.5
	l2.9-1.5c16.2-8.6,29.4-4.1,37.8,1.1c16.4,10.5,27.5,33.3,27.5,57v9.8h12.8v-9.8c0-28.5-13.3-55.4-33.7-68.5
	c-14.8-9.4-31.5-10.5-47.5-3.1c-16.7-7.6-33.8-6.4-48.5,3C49.1,69.6,36.5,96.4,36.5,125.2 M70.5,113.8V135h12.9v-21.1
	c0-8,6.1-14.5,13.9-14.5c7.7,0,13.9,6.4,13.9,14.5V135H124v-21.1c0-8,6.1-14.5,13.9-14.5c7.7,0,13.9,6.4,13.9,14.5V135h12.9v-21.1
	c0-15.4-12-27.8-26.8-27.8c-7.9,0-15.4,3.6-20.3,9.8c-5-6-12.5-9.7-20.3-9.8C82.4,85.8,70.4,98.4,70.5,113.8"/>
<g>
	<path class="st0" d="M270.2,134.1v-2.7h-0.1c-2,2.3-4.7,3.5-7.9,3.5c-3.7,0-6.6-1.3-8.8-4c-2.1-2.7-3.2-6.2-3.2-10.7
		s1.2-8,3.5-10.6c2.4-2.7,5.2-4,8.5-4c3,0,5.5,1.2,7.5,3.5h0.1V97.5h5.1v36.7L270.2,134.1L270.2,134.1z M269.8,116.7
		c0-1.7-0.6-3.3-1.8-4.6c-1.2-1.3-2.9-2-4.9-2c-5,0-7.8,3.6-7.8,10s2.7,10.1,7.8,10.1c2,0,3.6-0.6,4.9-1.8s1.9-2.7,1.9-4.3
		L269.8,116.7L269.8,116.7z"/>
	<path class="st0" d="M302.8,128.1c-2.1,3.9-6,6.8-11.5,6.8c-3.8,0-7-1.3-9.4-4s-3.6-6.2-3.6-10.7s1.2-8,3.6-10.6
		c2.4-2.7,5.5-4,9.2-4s6.7,1.3,9.1,4c2.4,2.6,3.5,6.2,3.5,10.7v1.5h-20.2c0.2,5,2.8,8.6,7.7,8.6c2.3,0,4.1-0.6,5.3-1.9
		c1.3-1.3,1.6-1.8,2.5-3.2L302.8,128.1z M298.5,117.7c-0.2-4.2-2.6-7.7-7.5-7.7c-2.4,0-4.1,0.8-5.5,2.4c-1.3,1.6-2,3.3-2,5.2
		L298.5,117.7L298.5,117.7z"/>
	<path class="st0" d="M320.6,134.1V97.4h14.6c3.2,0,5.9,0.9,7.8,2.8c1.9,1.8,2.9,4.1,2.9,6.9c0,3.3-1.5,5.7-4.5,7.2v0.1
		c3.2,1.2,5.9,4.2,5.9,8.7c0,7.3-4.4,11-13.2,11H320.6L320.6,134.1z M325.8,112.7h8.5c4.2,0,6.3-1.7,6.3-5.2c0-3.4-2.4-5.2-6.4-5.2
		h-8.4V112.7z M325.8,129.3h7.4c5.8,0,8.8-1.4,8.8-6.2c0-4.5-2.8-5.9-8.7-5.9h-7.5C325.8,117.2,325.8,129.3,325.8,129.3z"/>
	<path class="st0" d="M367.9,134.1v-2.9h-0.1c-0.4,0.8-1.3,1.6-2.7,2.5c-1.4,0.8-3.2,1.3-5.5,1.3c-6.3,0-9.5-3.4-9.5-8
		c0-4.7,2.6-7,9.3-8.6c3-0.8,5-1.4,6.1-2s1.6-1.4,1.6-2.5c0-2.1-1.8-3.8-5.5-3.8c-3.5,0-5.6,1.7-6.4,5.2l-4.5-1.6
		c1-4.8,4.8-8.1,10.8-8.1c6.5,0,10.8,3.2,10.8,10.2v18.3H367.9z M355.1,126.5c0,2.6,1.7,3.8,5,3.8c4.7,0,7.3-2.3,7.3-5.2v-6.2h-0.1
		c-0.3,0.8-1.2,1.5-6.7,3C356.3,123.1,355.1,124.4,355.1,126.5z"/>
	<path class="st0" d="M378.2,134.1v-27.8h4.9v3h0.1c1.1-2.1,3.4-3.5,5.7-3.5c0.9,0,1.8,0.2,2.5,0.5l-0.9,5c-0.7-0.3-1.4-0.4-2.1-0.4
		c-3.4,0-5,2.3-5,6.8V134L378.2,134.1L378.2,134.1z"/>
	<path class="st0" d="M416.3,124.5c-1,6.4-5.3,10.4-11.8,10.4c-3.7,0-6.8-1.3-9.2-3.9c-2.4-2.6-3.5-6.2-3.5-10.7
		c0-4.6,1.2-8.2,3.7-10.7c2.5-2.6,5.5-3.9,9.1-3.9c3.2,0,5.8,0.9,7.9,2.9c2.1,1.9,3.4,4.4,3.7,7.4l-5,0.8c-0.6-3.7-2.7-6.4-6.7-6.4
		c-4.7,0-7.7,3.7-7.7,10s2.9,10.1,7.8,10.1c3.9,0,6-3,6.7-7L416.3,124.5z"/>
	<path class="st0" d="M443.2,128.1c-2.1,3.9-6,6.8-11.5,6.8c-3.8,0-7-1.3-9.4-4s-3.6-6.2-3.6-10.7s1.2-8,3.6-10.6
		c2.4-2.7,5.5-4,9.2-4s6.7,1.3,9.1,4c2.4,2.6,3.5,6.2,3.5,10.7v1.5H424c0.2,5,2.8,8.6,7.7,8.6c2.3,0,4.1-0.6,5.3-1.9
		c1.3-1.3,1.6-1.8,2.5-3.2L443.2,128.1z M438.9,117.7c-0.2-4.2-2.6-7.7-7.5-7.7c-2.4,0-4.1,0.8-5.5,2.4c-1.3,1.6-2,3.3-2,5.2
		L438.9,117.7L438.9,117.7z"/>
	<path class="st0" d="M447.5,134.1V97.4h5.2v36.7H447.5z"/>
	<path class="st0" d="M459.8,131c-2.4-2.6-3.6-6.2-3.6-10.8c0-4.6,1.2-8.1,3.7-10.7s5.5-3.9,9.1-3.9c3.5,0,6.5,1.3,8.9,3.9
		c2.5,2.6,3.7,6.2,3.7,10.7c0,4.6-1.2,8.2-3.6,10.8s-5.3,3.9-9,3.9C465.2,134.9,462.2,133.6,459.8,131z M476.4,120.2
		c0-6.3-3.1-10-7.5-10c-4.6,0-7.7,3.6-7.7,10s3.1,10.1,7.7,10.1C473.3,130.3,476.4,126.5,476.4,120.2z"/>
	<path class="st0" d="M484.9,134.1v-27.8h5v2.7h0.1c1.5-1.9,4.5-3.5,7.6-3.5c6.1,0,10,3.9,10,10.4v18.2h-5.1v-16.7
		c0-4.8-1.9-7.1-5.9-7.1s-6.6,2.4-6.6,6.4v17.5L484.9,134.1L484.9,134.1z"/>
	<path class="st0" d="M529.6,134.1v-2.9h-0.1c-0.4,0.8-1.3,1.6-2.7,2.5c-1.4,0.8-3.2,1.3-5.5,1.3c-6.3,0-9.5-3.4-9.5-8
		c0-4.7,2.6-7,9.3-8.6c3-0.8,5-1.4,6.1-2s1.6-1.4,1.6-2.5c0-2.1-1.8-3.8-5.5-3.8c-3.5,0-5.6,1.7-6.4,5.2l-4.5-1.6
		c1-4.8,4.8-8.1,10.8-8.1c6.5,0,10.8,3.2,10.8,10.2v18.3H529.6z M516.8,126.5c0,2.6,1.7,3.8,5,3.8c4.7,0,7.3-2.3,7.3-5.2v-6.2H529
		c-0.3,0.8-1.2,1.5-6.7,3C517.9,123.1,516.8,124.4,516.8,126.5z"/>
	<g>
		<path class="st0" d="M252.6,38.4V1.7H267c3.7,0,6.7,1,9,3s3.4,4.8,3.4,8.4c0,7.1-4.8,11.4-12.3,11.4h-9.3v13.9H252.6L252.6,38.4z
			 M257.8,19.7h9c4.1,0,7.1-2.4,7.1-6.6c0-4.5-3-6.6-7.2-6.6h-8.9V19.7z"/>
		<path class="st0" d="M282.2,38.4V1.7h5.2v36.7H282.2z"/>
		<path class="st0" d="M309.6,38.4v-2.9h-0.1c-0.4,0.8-1.3,1.6-2.7,2.5c-1.4,0.8-3.2,1.3-5.5,1.3c-6.3,0-9.5-3.4-9.5-8
			c0-4.7,2.6-7,9.3-8.6c3-0.8,5-1.4,6.1-2s1.6-1.4,1.6-2.5c0-2.1-1.8-3.8-5.5-3.8c-3.5,0-5.6,1.7-6.4,5.2l-4.5-1.6
			c1-4.8,4.8-8.1,10.8-8.1c6.5,0,10.8,3.2,10.8,10.2v18.3L309.6,38.4L309.6,38.4z M296.8,30.8c0,2.6,1.7,3.8,5,3.8
			c4.7,0,7.3-2.3,7.3-5.2v-6.2H309c-0.3,0.8-1.2,1.5-6.7,3C297.9,27.4,296.8,28.7,296.8,30.8z"/>
	</g>
	<g>
		<path class="st0" d="M332.3,38.4V1.7h22.4v4.9h-17.1v10.6h15.7v4.7h-15.7v11.7h17.2v4.8H332.3z"/>
		<path class="st0" d="M362.9,28c0.5,4.6,2.9,6.8,7.2,6.8c4,0,6.3-1.6,6.3-4c0-1.2-0.5-2.1-1.5-2.7s-3.1-1.4-6.3-2.3
			c-6.7-1.8-9.3-3.9-9.3-8.1c0-2.1,0.9-4,2.6-5.6c1.8-1.6,4.2-2.4,7.3-2.4c6.2,0,9.8,3.2,11.1,8.1l-4.4,1.2c-1.1-3.3-3.3-5-6.7-5
			s-5.2,1.6-5.2,3.5c0,1,0.5,1.8,1.4,2.4c0.9,0.5,3.1,1.3,6.6,2.3s5.8,2.1,7.1,3.5c1.3,1.3,2,3,2,5.2c0.1,2.2-0.8,4.1-2.7,5.8
			c-1.8,1.6-4.5,2.5-8.1,2.5c-3.7,0-6.6-0.9-8.6-2.9c-2-1.9-3.1-4.4-3.5-7.2L362.9,28z"/>
		<path class="st0" d="M386.4,15.1h-4.1v-4.5h4.2V3.8h4.9v6.8h6.9v4.5h-6.9v14.1c0,3.1,0.7,4.3,3.6,4.3h2.1v4.9h-2.5
			c-6,0-8.2-2.8-8.2-8.7V15.1z"/>
		<path class="st0" d="M402.5,38.4V10.6h4.9v3h0.1c1.1-2.1,3.4-3.5,5.7-3.5c0.9,0,1.8,0.2,2.5,0.5l-0.9,5c-0.7-0.3-1.4-0.4-2.1-0.4
			c-3.4,0-5,2.3-5,6.8v16.3L402.5,38.4L402.5,38.4z"/>
		<path class="st0" d="M435,38.4v-2.9h-0.1c-0.4,0.8-1.3,1.6-2.7,2.5c-1.4,0.8-3.2,1.3-5.5,1.3c-6.3,0-9.5-3.4-9.5-8
			c0-4.7,2.6-7,9.3-8.6c3-0.8,5-1.4,6.1-2s1.6-1.4,1.6-2.5c0-2.1-1.8-3.8-5.5-3.8c-3.5,0-5.6,1.7-6.4,5.2l-4.5-1.6
			c1-4.8,4.8-8.1,10.8-8.1c6.5,0,10.8,3.2,10.8,10.2v18.3L435,38.4L435,38.4z M422.2,30.8c0,2.6,1.7,3.8,5,3.8
			c4.7,0,7.3-2.3,7.3-5.2v-6.2h-0.1c-0.3,0.8-1.2,1.5-6.7,3C423.3,27.4,422.2,28.7,422.2,30.8z"/>
		<path class="st0" d="M446.4,15.1h-4.1v-4.5h4.2V3.8h4.9v6.8h6.9v4.5h-6.9v14.1c0,3.1,0.7,4.3,3.6,4.3h2.1v4.9h-2.5
			c-6,0-8.2-2.8-8.2-8.7V15.1z"/>
		<path class="st0" d="M484.1,32.4c-2.1,3.9-6,6.8-11.5,6.8c-3.8,0-7-1.3-9.4-4s-3.6-6.2-3.6-10.7s1.2-8,3.6-10.6
			c2.4-2.7,5.5-4,9.2-4s6.7,1.3,9.1,4c2.4,2.6,3.5,6.2,3.5,10.7v1.5h-20c0.2,5,2.8,8.6,7.7,8.6c2.3,0,4.1-0.6,5.3-1.9
			c1.3-1.3,1.6-1.8,2.5-3.2L484.1,32.4z M479.8,22c-0.2-4.2-2.6-7.7-7.5-7.7c-2.4,0-4.1,0.8-5.5,2.4c-1.3,1.6-2,3.3-2,5.2L479.8,22
			L479.8,22z"/>
		<path class="st0" d="M493.6,41.3c1.5,3.3,3.4,5.2,7.1,5.2c4.1,0,6.7-2.5,6.7-6.9V36h-0.1c-1.6,2.1-4.1,3.2-7.4,3.2
			c-3.6,0-6.6-1.3-8.9-3.9c-2.3-2.7-3.4-6.2-3.4-10.7s1.2-8,3.5-10.6c2.4-2.7,5.3-4,8.8-4c3.2,0,5.8,1.2,7.7,3.5h0.1v-2.7h4.9v28
			c0,8-4.5,12.3-11.7,12.3c-5.7,0-9.6-2.9-11.2-7.3L493.6,41.3z M507.3,20.9c0-1.7-0.6-3.1-1.9-4.5c-1.2-1.3-2.8-1.9-4.9-1.9
			c-5,0-8,3.7-8,10s3,10.1,8,10.1c1.9,0,3.6-0.6,4.8-1.7c1.3-1.2,1.9-2.6,1.9-4.2L507.3,20.9L507.3,20.9z"/>
		<path class="st0" d="M518.7,38.4V10.6h5.1v27.8H518.7z"/>
		<path class="st0" d="M552.9,28.8c-1,6.4-5.3,10.4-11.8,10.4c-3.7,0-6.8-1.3-9.2-3.9c-2.4-2.6-3.5-6.2-3.5-10.7s1.2-8.2,3.7-10.7
			c2.5-2.6,5.5-3.9,9.1-3.9c3.2,0,5.8,0.9,7.9,2.9c2.1,1.9,3.4,4.4,3.7,7.4l-5,0.8c-0.6-3.7-2.7-6.4-6.7-6.4c-4.7,0-7.7,3.7-7.7,10
			s2.9,10.1,7.8,10.1c3.9,0,6-3,6.7-7L552.9,28.8z"/>
		<polygon class="st0" points="470.8,8.1 465.2,1.7 471,1.7 475.2,8.1 		"/>
		<rect x="518.5" y="1.7" class="st0" width="5.5" height="5.4"/>
	</g>
	<g>
		<path class="st0" d="M252.6,87.3V50.6h6.7l11.2,26.7h0.1l11.2-26.7h6.6v36.7h-5.2V59.4h-0.1l-11.9,27.9h-1.4l-11.9-27.9h-0.1v27.9
			H252.6L252.6,87.3z"/>
		<path class="st0" d="M316.8,81.4c-2.1,3.9-6,6.8-11.5,6.8c-3.8,0-7-1.3-9.4-4s-3.6-6.2-3.6-10.7s1.2-8,3.6-10.6
			c2.4-2.7,5.5-4,9.2-4s6.7,1.3,9.1,4c2.4,2.6,3.5,6.2,3.5,10.7v1.5h-20.3c0.2,5,2.8,8.6,7.7,8.6c2.3,0,4.1-0.6,5.3-1.9
			c1.3-1.3,1.6-1.8,2.5-3.2L316.8,81.4z M312.5,71c-0.2-4.2-2.6-7.7-7.5-7.7c-2.4,0-4.1,0.8-5.5,2.4c-1.3,1.6-2,3.3-2,5.2L312.5,71
			L312.5,71z"/>
		<path class="st0" d="M323.2,64h-4.1v-4.5h4.2v-6.8h4.9v6.8h6.9V64h-6.9v14.1c0,3.1,0.7,4.3,3.6,4.3h2.1v4.9h-2.5
			c-6,0-8.2-2.8-8.2-8.7V64z"/>
		<path class="st0" d="M339.3,87.3V59.5h4.9v3h0.1c1.1-2.1,3.4-3.5,5.7-3.5c0.9,0,1.8,0.2,2.5,0.5l-0.9,5c-0.7-0.3-1.4-0.4-2.1-0.4
			c-3.4,0-5,2.3-5,6.8v16.3L339.3,87.3L339.3,87.3z"/>
		<path class="st0" d="M356.5,84.2c-2.4-2.6-3.6-6.2-3.6-10.8s1.2-8.1,3.7-10.7c2.5-2.6,5.5-3.9,9.1-3.9c3.5,0,6.5,1.3,8.9,3.9
			c2.5,2.6,3.7,6.2,3.7,10.7c0,4.6-1.2,8.2-3.6,10.8s-5.3,3.9-9,3.9S359,86.8,356.5,84.2z M373.3,73.4c0-6.3-3.1-10-7.5-10
			c-4.6,0-7.7,3.6-7.7,10s3.1,10.1,7.7,10.1C370.2,83.5,373.3,79.8,373.3,73.4z"/>
		<path class="st0" d="M381.8,96.2V59.5h4.9v2.7h0.1c0.4-0.5,0.8-0.9,1.4-1.4c1.1-0.9,3.7-2.1,6.4-2.1c3.4,0,6.2,1.4,8.6,4
			c2.4,2.7,3.6,6.2,3.6,10.6c0,4.5-1.2,8.1-3.4,10.7c-2.3,2.6-5.2,3.9-8.7,3.9c-3.8,0-6.6-1.9-7.7-3.5h-0.1V96h-5.1L381.8,96.2
			L381.8,96.2z M386.8,77.6c0,1.6,0.6,3,1.9,4.2s2.9,1.7,4.9,1.7c5,0,8-3.7,8-10.1s-3-10-8-10c-2,0-3.7,0.6-4.9,1.9
			c-1.2,1.3-1.8,2.8-1.8,4.5L386.8,77.6L386.8,77.6z"/>
		<path class="st0" d="M412.8,84.2c-2.4-2.6-3.6-6.2-3.6-10.8s1.2-8.1,3.7-10.7c2.5-2.6,5.5-3.9,9.1-3.9c3.5,0,6.5,1.3,8.9,3.9
			c2.5,2.6,3.7,6.2,3.7,10.7c0,4.6-1.2,8.2-3.6,10.8s-5.3,3.9-9,3.9S415.2,86.8,412.8,84.2z M429.5,73.4c0-6.3-3.1-10-7.5-10
			c-4.6,0-7.7,3.6-7.7,10s3.1,10.1,7.7,10.1C426.4,83.5,429.5,79.8,429.5,73.4z"/>
		<path class="st0" d="M438,87.3V50.6h5.2v36.7H438z"/>
		<path class="st0" d="M462.6,64h-4.1v-4.5h4.2v-6.8h4.9v6.8h6.9V64h-6.9v14.1c0,3.1,0.7,4.3,3.6,4.3h2.1v4.9h-2.5
			c-6,0-8.2-2.8-8.2-8.7V64L462.6,64z"/>
		<g>
			<path class="st0" d="M448.8,87.3V59.5h5.1v27.8H448.8z"/>
			<rect x="448.6" y="50.6" class="st0" width="5.5" height="5.4"/>
		</g>
		<g>
			<path class="st0" d="M494,87.3v-2.9h-0.1c-0.4,0.8-1.3,1.6-2.7,2.5c-1.4,0.8-3.2,1.3-5.5,1.3c-6.3,0-9.5-3.4-9.5-8
				c0-4.7,2.6-7,9.3-8.6c3-0.8,5-1.4,6.1-2s1.6-1.4,1.6-2.5c0-2.1-1.8-3.8-5.5-3.8c-3.5,0-5.6,1.7-6.4,5.2l-4.5-1.6
				c1-4.8,4.8-8.1,10.8-8.1c6.5,0,10.8,3.2,10.8,10.2v18.3H494L494,87.3z M481.2,79.8c0,2.6,1.7,3.8,5,3.8c4.7,0,7.3-2.3,7.3-5.2
				v-6.2h-0.1c-0.3,0.8-1.2,1.5-6.7,3C482.3,76.4,481.2,77.6,481.2,79.8z"/>
			<polygon class="st0" points="487.6,57 481.8,50.6 487.8,50.6 492,57 			"/>
		</g>
	</g>
</g>
</svg>
