<?xml version="1.0" encoding="UTF-8"?>
<svg viewBox="28.427 63.225 436.991 117.736" xmlns="http://www.w3.org/2000/svg">
  <path d="M 196.529 165.264 L 196.529 129.627 L 190.365 129.627 L 190.365 141.373 C 189.277 140.042 186.905 138.958 183.648 138.958 C 181.029 138.958 178.954 139.747 177.375 141.029 C 174.318 143.544 172.79 147.442 172.79 152.478 C 172.79 157.315 174.269 161.167 177.327 163.683 C 178.905 164.968 181.029 165.858 183.597 165.858 C 186.413 165.858 189.277 164.821 190.808 162.454 L 191.203 165.264 L 196.529 165.264 Z M 190.662 152.382 C 190.662 156.086 189.674 160.679 184.833 160.679 C 182.906 160.679 181.572 159.791 180.682 158.655 C 179.399 156.976 179.054 154.605 179.054 152.382 C 179.054 150.16 179.399 147.839 180.682 146.159 C 181.572 145.025 182.906 144.135 184.833 144.135 C 189.674 144.135 190.662 148.679 190.662 152.382 M 225.607 152.628 C 225.705 149.422 225.259 146.506 223.385 143.692 C 221.261 140.486 217.806 138.958 214.006 138.958 C 210.5 138.958 207.736 140.24 205.813 142.211 C 203.346 144.728 202.113 148.385 202.113 152.48 C 202.113 156.676 203.494 160.283 206.059 162.751 C 208.081 164.673 210.648 165.906 214.154 165.906 C 217.411 165.906 220.62 164.871 222.792 162.307 C 223.779 161.123 224.816 159.098 224.965 157.565 L 219.041 157.565 C 218.793 158.504 218.349 159.198 217.806 159.741 C 216.918 160.629 215.831 160.975 214.055 160.975 C 212.375 160.975 211.142 160.235 210.254 159.395 C 209.019 158.207 208.327 156.33 208.377 154.354 L 225.558 154.354 C 225.558 153.812 225.607 152.628 225.607 152.628 M 219.434 149.868 L 208.327 149.868 C 208.377 148.188 208.773 147.003 209.661 145.864 C 210.55 144.678 212.08 143.887 213.955 143.887 C 215.732 143.887 217.016 144.482 217.856 145.37 C 218.843 146.458 219.386 147.94 219.434 149.868 M 268.062 155.07 C 268.062 151.827 266.335 148.728 263.032 147.198 C 265.99 145.867 267.32 142.658 267.32 139.793 C 267.32 136.781 265.841 133.869 263.278 132.192 C 260.91 130.663 257.996 130.27 255.181 130.27 L 241.261 130.27 L 241.261 165.264 L 255.181 165.264 C 258.539 165.264 261.797 164.968 264.509 162.898 C 267.025 160.973 268.062 158.167 268.062 155.07 M 260.861 140.189 C 260.861 143.498 258.441 144.537 255.576 144.537 L 247.575 144.537 L 247.575 135.743 L 255.427 135.743 C 258.291 135.743 260.861 136.829 260.861 140.189 M 261.6 154.923 C 261.6 158.462 258.39 159.543 255.427 159.543 L 247.575 159.543 L 247.575 149.861 L 255.625 149.861 C 258.985 149.861 261.6 151.188 261.6 154.923 M 295.805 164.968 L 295.805 160.432 C 295.805 160.432 295.41 160.532 295.015 160.532 C 293.978 160.532 293.584 160.086 293.584 158.901 L 293.584 149.374 C 293.584 147.64 293.484 145.816 292.845 144.186 C 291.365 140.339 287.617 138.958 283.22 138.958 C 277.49 138.958 272.905 141.523 272.558 147.294 L 278.528 147.294 C 278.675 144.926 280.355 143.641 283.22 143.641 C 286.728 143.641 287.568 145.272 287.568 147.694 L 287.568 149.276 L 280.009 149.819 C 275.122 150.163 271.326 152.975 271.326 157.862 C 271.326 162.059 274.481 165.906 280.603 165.906 C 284.257 165.906 287.221 164.132 288.405 162.059 C 288.603 163.982 290.082 165.658 292.745 165.658 C 294.226 165.658 294.769 165.412 295.805 164.968 M 287.568 155.045 C 287.568 158.85 284.851 160.926 280.998 160.926 C 279.071 160.926 277.343 159.69 277.343 157.713 C 277.343 155.639 279.17 154.502 281.046 154.354 L 287.568 153.86 L 287.568 155.045 Z M 315.799 145.319 L 315.799 139.402 C 315.157 139.304 314.516 139.253 313.874 139.253 C 310.862 139.253 307.801 140.488 306.617 143.445 L 306.074 139.599 L 300.847 139.599 L 300.847 165.264 L 307.06 165.264 L 307.06 152.333 C 307.06 148.183 309.332 145.073 313.676 145.073 C 314.367 145.073 315.108 145.172 315.799 145.319 M 339.836 156.187 L 333.765 156.187 C 333.714 157.124 333.418 157.914 333.024 158.554 C 332.283 159.692 330.95 160.481 329.075 160.481 C 327.396 160.481 326.162 159.741 325.323 158.851 C 323.842 157.222 323.595 154.803 323.595 152.382 C 323.595 149.962 323.842 147.493 325.323 145.864 C 326.162 144.974 327.396 144.282 329.075 144.282 C 330.95 144.282 332.283 145.073 333.024 146.21 C 333.418 146.851 333.714 147.64 333.765 148.578 L 339.836 148.578 C 339.737 146.556 339.047 144.532 337.862 143.002 C 336.086 140.782 332.974 138.958 329.075 138.958 C 325.175 138.958 321.918 140.832 320.142 143.002 C 318.219 145.421 317.331 148.628 317.331 152.382 C 317.331 156.138 318.219 159.344 320.142 161.762 C 321.918 163.933 325.175 165.807 329.075 165.807 C 332.974 165.807 336.086 163.982 337.862 161.762 C 339.047 160.233 339.737 158.209 339.836 156.187 M 366.692 152.628 C 366.791 149.422 366.346 146.506 364.471 143.692 C 362.348 140.486 358.892 138.958 355.09 138.958 C 351.585 138.958 348.823 140.24 346.898 142.211 C 344.433 144.728 343.2 148.385 343.2 152.48 C 343.2 156.676 344.58 160.283 347.144 162.751 C 349.166 164.673 351.733 165.906 355.239 165.906 C 358.498 165.906 361.706 164.871 363.877 162.307 C 364.866 161.123 365.903 159.098 366.05 157.565 L 360.126 157.565 C 359.878 158.504 359.435 159.198 358.892 159.741 C 358.003 160.629 356.918 160.975 355.14 160.975 C 353.462 160.975 352.227 160.235 351.339 159.395 C 350.104 158.207 349.414 156.33 349.463 154.354 L 366.643 154.354 C 366.643 153.812 366.692 152.628 366.692 152.628 M 360.521 149.868 L 349.414 149.868 C 349.463 148.188 349.858 147.003 350.746 145.864 C 351.635 144.678 353.165 143.887 355.042 143.887 C 356.819 143.887 358.101 144.482 358.941 145.37 C 359.929 146.458 360.472 147.94 360.521 149.868 M 381.698 165.214 L 381.698 160.037 C 381.354 160.037 381.205 160.086 380.663 160.086 C 378.54 160.086 378.193 159.099 378.193 157.618 L 378.193 129.578 L 371.979 129.578 L 371.979 158.656 C 371.979 163.538 374.791 165.561 378.984 165.561 C 380.219 165.561 380.465 165.462 381.698 165.214 M 408.646 152.433 C 408.646 148.085 407.562 145.37 405.639 142.951 C 403.862 140.782 400.555 138.958 396.654 138.958 C 392.752 138.958 389.444 140.782 387.668 142.951 C 385.745 145.37 384.661 148.085 384.661 152.433 C 384.661 156.777 385.745 159.494 387.668 161.912 C 389.444 164.081 392.752 165.906 396.654 165.906 C 400.555 165.906 403.862 164.081 405.639 161.912 C 407.562 159.494 408.646 156.777 408.646 152.433 M 402.383 152.433 C 402.383 154.851 402.036 157.271 400.555 158.901 C 399.716 159.791 398.333 160.532 396.654 160.532 C 394.974 160.532 393.591 159.791 392.752 158.901 C 391.269 157.271 390.924 154.851 390.924 152.433 C 390.924 150.011 391.269 147.593 392.752 145.962 C 393.591 145.073 394.974 144.333 396.654 144.333 C 398.333 144.333 399.716 145.073 400.555 145.962 C 402.036 147.593 402.383 150.011 402.383 152.433 M 436.093 165.264 L 436.093 148.134 C 436.093 142.805 432.889 138.958 427.41 138.958 C 424.447 138.958 421.384 140.191 419.852 142.903 L 419.409 139.599 L 414.231 139.599 L 414.231 165.264 L 420.396 165.264 L 420.396 154.801 C 420.396 152.628 420.347 149.964 421.236 147.94 C 422.075 146.06 423.508 144.678 425.681 144.678 C 428.941 144.678 429.929 146.505 429.929 149.517 L 429.929 165.264 L 436.093 165.264 Z M 465.418 164.968 L 465.418 160.432 C 465.418 160.432 465.023 160.532 464.629 160.532 C 463.592 160.532 463.197 160.086 463.197 158.901 L 463.197 149.374 C 463.197 147.64 463.097 145.816 462.456 144.186 C 460.977 140.339 457.229 138.958 452.832 138.958 C 447.103 138.958 442.515 141.523 442.171 147.294 L 448.14 147.294 C 448.288 144.926 449.968 143.641 452.832 143.641 C 456.339 143.641 457.179 145.272 457.179 147.694 L 457.179 149.276 L 449.622 149.819 C 444.735 150.163 440.938 152.975 440.938 157.862 C 440.938 162.059 444.093 165.906 450.214 165.906 C 453.871 165.906 456.833 164.132 458.019 162.059 C 458.215 163.982 459.694 165.658 462.358 165.658 C 463.838 165.658 464.381 165.412 465.418 164.968 M 457.179 155.045 C 457.179 158.85 454.462 160.926 450.61 160.926 C 448.683 160.926 446.954 159.69 446.954 157.713 C 446.954 155.639 448.782 154.502 450.659 154.354 L 457.179 153.86 L 457.179 155.045 Z" style="fill:#ffffff;fill-opacity:1;fill-rule:nonzero;stroke:none" id="path22"/>
  <path d="M 202.259 115.605 L 189.967 80.611 L 183.007 80.611 L 170.713 115.605 L 177.131 115.605 L 179.401 108.892 L 193.323 108.892 L 195.594 115.605 L 202.259 115.605 Z M 191.35 103.172 L 181.376 103.172 L 186.363 88.41 L 191.35 103.172 Z M 213.012 79.919 L 206.403 79.919 L 206.403 86.281 L 213.012 86.281 L 213.012 79.919 Z M 212.864 119.166 L 212.864 89.94 L 206.649 89.94 L 206.649 117.981 C 206.649 119.709 205.612 120.745 203.686 120.745 C 202.748 120.745 202.502 120.647 200.676 120.449 L 200.676 125.678 C 201.81 125.972 202.7 126.12 203.491 126.219 C 204.28 126.318 204.972 126.318 205.661 126.318 C 210.25 126.318 212.864 123.556 212.864 119.166 M 241.694 115.605 L 241.694 89.94 L 235.528 89.94 L 235.528 103.513 C 235.528 105.586 235.133 107.906 233.651 109.289 C 232.911 110.033 231.923 110.576 230.489 110.576 C 227.229 110.576 226.044 108.7 226.044 105.689 L 226.044 89.94 L 219.879 89.94 L 219.879 107.071 C 219.879 112.548 223.282 116.247 228.76 116.247 C 232.021 116.247 234.887 114.768 236.12 112.252 L 236.564 115.605 L 241.694 115.605 Z M 270.919 115.605 L 270.919 98.475 C 270.919 93.145 267.713 89.299 262.235 89.299 C 259.271 89.299 256.208 90.532 254.679 93.245 L 254.233 89.94 L 249.054 89.94 L 249.054 115.605 L 255.22 115.605 L 255.22 105.142 C 255.22 102.97 255.171 100.305 256.06 98.281 C 256.9 96.402 258.331 95.019 260.506 95.019 C 263.765 95.019 264.753 96.845 264.753 99.858 L 264.753 115.605 L 270.919 115.605 Z M 292.393 115.261 L 292.393 110.082 C 290.713 110.279 289.678 110.33 288.394 110.33 C 286.419 110.33 285.531 109.489 285.531 107.514 L 285.531 95.019 L 291.998 95.019 L 291.998 89.94 L 285.531 89.94 L 285.531 81.894 L 279.366 83.424 L 279.366 89.94 L 274.677 89.94 L 274.677 95.019 L 279.366 95.019 L 279.366 108.058 C 279.366 112.993 281.93 115.951 287.111 115.951 C 288.937 115.951 290.664 115.704 292.393 115.261 M 319.643 115.31 L 319.643 110.773 C 319.643 110.773 319.248 110.872 318.854 110.872 C 317.817 110.872 317.422 110.427 317.422 109.241 L 317.422 99.716 C 317.422 97.982 317.324 96.156 316.681 94.528 C 315.202 90.68 311.455 89.299 307.059 89.299 C 301.328 89.299 296.742 91.864 296.397 97.635 L 302.365 97.635 C 302.514 95.267 304.193 93.982 307.059 93.982 C 310.565 93.982 311.405 95.614 311.405 98.034 L 311.405 99.616 L 303.848 100.159 C 298.96 100.505 295.164 103.315 295.164 108.204 C 295.164 112.401 298.32 116.247 304.441 116.247 C 308.096 116.247 311.058 114.472 312.244 112.401 C 312.44 114.323 313.921 116 316.584 116 C 318.063 116 318.606 115.754 319.643 115.309 L 319.643 115.31 Z M 311.405 105.386 C 311.405 109.192 308.687 111.268 304.835 111.268 C 302.908 111.268 301.179 110.031 301.179 108.055 C 301.179 105.981 303.007 104.844 304.885 104.695 L 311.405 104.201 L 311.405 105.386 Z M 361.061 115.605 L 361.061 98.278 C 361.061 92.948 358.202 89.299 352.724 89.299 C 349.265 89.299 346.5 90.828 344.969 93.491 C 343.687 90.876 341.221 89.299 337.617 89.299 C 334.209 89.299 331.739 90.976 330.306 93.342 L 329.814 89.94 L 324.684 89.94 L 324.684 115.605 L 330.799 115.605 L 330.799 101.589 C 330.799 98.376 332.381 94.674 335.888 94.674 C 339 94.674 339.84 96.5 339.84 99.659 L 339.84 115.605 L 345.956 115.605 L 345.956 101.586 C 345.956 98.376 347.486 94.674 350.994 94.674 C 354.106 94.674 354.946 96.5 354.946 99.659 L 354.946 115.605 L 361.061 115.605 Z M 389.744 102.969 C 389.842 99.764 389.398 96.848 387.523 94.033 C 385.4 90.828 381.944 89.299 378.143 89.299 C 374.638 89.299 371.874 90.582 369.951 92.554 C 367.484 95.069 366.251 98.726 366.251 102.821 C 366.251 107.018 367.633 110.625 370.197 113.092 C 372.219 115.015 374.785 116.247 378.29 116.247 C 381.55 116.247 384.757 115.211 386.93 112.648 C 387.918 111.464 388.955 109.439 389.101 107.907 L 383.177 107.907 C 382.931 108.846 382.487 109.538 381.944 110.082 C 381.056 110.971 379.969 111.316 378.191 111.316 C 376.514 111.316 375.279 110.575 374.39 109.735 C 373.156 108.549 372.465 106.672 372.515 104.695 L 389.694 104.695 C 389.694 104.153 389.744 102.969 389.744 102.969 M 383.573 100.209 L 372.465 100.209 C 372.515 98.529 372.91 97.344 373.799 96.206 C 374.688 95.02 376.217 94.229 378.094 94.229 C 379.87 94.229 381.153 94.823 381.993 95.712 C 382.981 96.8 383.524 98.281 383.573 100.209 M 417.043 115.605 L 417.043 98.475 C 417.043 93.145 413.837 89.299 408.359 89.299 C 405.396 89.299 402.333 90.532 400.802 93.245 L 400.358 89.94 L 395.179 89.94 L 395.179 115.605 L 401.345 115.605 L 401.345 105.142 C 401.345 102.97 401.294 100.305 402.184 98.281 C 403.025 96.402 404.457 95.019 406.631 95.019 C 409.89 95.019 410.879 96.845 410.879 99.858 L 410.879 115.605 L 417.043 115.605 Z M 438.517 115.261 L 438.517 110.082 C 436.838 110.279 435.803 110.33 434.518 110.33 C 432.543 110.33 431.656 109.489 431.656 107.514 L 431.656 95.019 L 438.122 95.019 L 438.122 89.94 L 431.656 89.94 L 431.656 81.894 L 425.491 83.424 L 425.491 89.94 L 420.8 89.94 L 420.8 95.019 L 425.491 95.019 L 425.491 108.058 C 425.491 112.993 428.056 115.951 433.235 115.951 C 435.061 115.951 436.79 115.704 438.517 115.261" style="fill:#ffffff;fill-opacity:1;fill-rule:nonzero;stroke:none" id="path26"/>
  <path d="M 49.285 63.225 C 37.767 63.225 28.431 72.565 28.431 84.086 L 28.427 160.11 C 28.431 171.625 37.767 180.968 49.285 180.961 L 125.308 180.961 C 136.833 180.961 146.169 171.622 146.162 160.11 L 146.169 84.086 C 146.169 72.565 136.833 63.225 125.308 63.225 L 49.285 63.225 Z M 86.953 100.64 L 87.417 100.176 L 87.861 100.633 L 87.861 128.82 L 91.031 128.82 L 91.031 103.802 L 94.198 106.964 L 94.198 128.82 L 97.362 128.82 L 97.362 110.126 L 100.524 113.295 L 100.524 128.82 L 103.694 128.82 L 103.694 116.457 L 106.862 119.619 L 106.862 128.82 L 110.024 128.82 L 110.024 122.789 L 113.194 125.954 L 113.194 128.82 L 116.059 128.82 L 116.505 129.262 L 116.04 129.731 L 97.362 129.731 L 97.362 137.611 L 108.171 137.611 L 105.008 140.771 L 97.362 140.771 L 97.362 148.423 L 94.198 151.602 L 94.198 140.771 L 87.861 140.771 L 87.861 157.916 L 87.405 158.364 L 86.953 157.916 L 86.953 129.731 L 83.79 129.731 L 83.79 154.757 L 80.625 151.588 L 80.625 129.731 L 77.459 129.731 L 77.459 148.423 L 74.29 145.259 L 74.29 129.731 L 71.122 129.731 L 71.122 142.101 L 67.954 138.929 L 67.954 129.731 L 64.787 129.731 L 64.787 135.763 L 61.624 132.601 L 61.624 129.731 L 58.763 129.731 L 58.313 129.276 L 58.764 128.82 L 77.453 128.82 L 77.453 120.952 L 66.635 120.952 L 69.809 117.783 L 77.453 117.783 L 77.453 110.113 L 80.625 106.951 L 80.625 117.783 L 86.953 117.783 L 86.953 100.64 Z M 86.953 120.953 L 80.625 120.953 L 80.625 128.82 L 86.953 128.82 L 86.953 120.953 Z M 87.861 137.611 L 94.198 137.611 L 94.198 129.731 L 87.861 129.731 L 87.861 137.611 Z M 78.797 95.994 L 77.683 94.319 C 80.552 92.938 83.882 92.15 87.423 92.15 C 90.979 92.15 94.295 92.964 97.133 94.312 L 96.023 95.994 C 93.51 94.835 90.545 94.064 87.399 94.064 C 84.291 94.064 81.311 94.835 78.797 95.994 Z M 81.811 90.057 C 81.267 89.845 80.856 89.474 80.754 88.987 C 80.659 88.504 80.868 87.997 81.295 87.579 C 81.858 87.781 82.26 88.156 82.361 88.642 C 82.465 89.129 82.253 89.636 81.833 90.044 C 82.279 89.666 82.801 89.504 83.27 89.66 C 83.752 89.811 84.079 90.259 84.215 90.831 C 83.769 91.213 83.236 91.381 82.77 91.222 C 82.288 91.076 81.962 90.627 81.811 90.057 C 81.922 90.629 81.802 91.173 81.429 91.511 C 81.058 91.842 80.506 91.908 79.938 91.749 C 79.84 91.156 79.951 90.62 80.324 90.279 C 80.704 89.951 81.248 89.888 81.811 90.057 Z M 76.527 91.749 C 75.938 91.67 75.464 91.381 75.256 90.924 C 75.047 90.464 75.163 89.928 75.501 89.434 C 76.087 89.52 76.557 89.799 76.764 90.259 C 76.969 90.712 76.851 91.249 76.527 91.749 Z M 86.061 77.556 C 86.061 76.811 86.669 76.208 87.417 76.208 C 88.162 76.208 88.761 76.811 88.761 77.556 C 88.761 78.298 88.162 78.901 87.417 78.901 C 86.669 78.901 86.061 78.298 86.061 77.556 Z M 87.438 89.47 C 86.93 89.156 86.614 88.71 86.614 88.209 C 86.614 87.712 86.934 87.265 87.44 86.95 C 87.944 87.265 88.263 87.712 88.263 88.209 C 88.263 88.71 87.944 89.156 87.44 89.47 C 87.964 89.182 88.509 89.14 88.936 89.388 C 89.375 89.647 89.603 90.143 89.625 90.735 C 89.104 91.017 88.555 91.064 88.122 90.816 C 87.693 90.566 87.458 90.064 87.44 89.474 C 87.423 90.066 87.198 90.566 86.76 90.816 C 86.323 91.064 85.774 91.017 85.249 90.735 C 85.274 90.143 85.501 89.647 85.938 89.388 C 86.364 89.14 86.909 89.182 87.438 89.47 Z M 76.527 91.749 C 76.888 91.275 77.367 91.004 77.86 91.057 C 78.36 91.11 78.778 91.471 79.034 92.007 C 78.67 92.48 78.187 92.733 77.69 92.689 C 77.197 92.643 76.781 92.282 76.527 91.749 Z M 74.495 89.063 C 73.623 88.279 73.089 87.216 73.089 86.05 C 73.089 83.626 75.406 81.662 78.262 81.662 C 79.015 81.662 79.721 81.798 80.363 82.039 C 81.311 80.96 82.826 80.252 84.534 80.252 C 85.593 80.252 86.58 80.523 87.399 80.987 C 88.217 80.523 89.204 80.252 90.264 80.252 C 91.972 80.252 93.5 80.96 94.43 82.039 C 95.08 81.798 95.782 81.662 96.535 81.662 C 99.395 81.662 101.711 83.626 101.711 86.05 C 101.711 87.216 101.178 88.279 100.296 89.063 L 98.893 87.656 C 99.414 87.229 99.728 86.662 99.728 86.05 C 99.728 84.726 98.298 83.652 96.539 83.652 C 96.118 83.652 95.713 83.715 95.35 83.825 C 95.407 84.089 95.434 84.365 95.434 84.643 C 95.434 85.517 95.138 86.328 94.622 87.017 L 93.194 85.576 C 93.36 85.295 93.452 84.974 93.452 84.643 C 93.452 83.315 92.024 82.248 90.271 82.248 C 89.582 82.248 88.951 82.401 88.436 82.679 L 88.436 85.569 L 86.447 85.569 L 86.447 82.725 C 85.909 82.424 85.249 82.248 84.534 82.248 C 82.778 82.248 81.353 83.315 81.353 84.643 C 81.353 84.974 81.448 85.295 81.608 85.576 L 80.179 87.017 C 79.663 86.328 79.361 85.517 79.361 84.643 C 79.361 84.365 79.388 84.089 79.448 83.825 C 79.078 83.715 78.683 83.652 78.262 83.652 C 76.5 83.652 75.075 84.726 75.075 86.05 C 75.075 86.662 75.387 87.229 75.906 87.656 L 74.495 89.063 Z M 123.261 129.276 C 123.261 129.995 122.681 130.566 121.973 130.566 C 121.255 130.566 120.678 129.995 120.678 129.276 C 120.678 128.571 121.255 127.994 121.973 127.994 C 122.681 127.994 123.261 128.571 123.261 129.276 Z M 88.704 163.857 C 88.704 164.569 88.122 165.146 87.405 165.146 C 86.69 165.146 86.114 164.569 86.114 163.857 C 86.114 163.142 86.69 162.562 87.405 162.562 C 88.122 162.562 88.704 163.142 88.704 163.857 Z M 54.116 129.276 C 54.116 129.995 53.54 130.566 52.832 130.566 C 52.117 130.566 51.537 129.995 51.537 129.276 C 51.537 128.567 52.117 127.994 52.832 127.994 C 53.54 127.994 54.116 128.567 54.116 129.276 Z M 119.177 129.22 L 119.202 129.262 L 119.177 129.305 C 119.174 129.32 115.664 135.594 104.858 146.409 C 93.924 157.343 87.453 161.032 87.453 161.032 L 87.399 161.065 L 87.348 161.032 C 87.348 161.032 81.068 157.529 70.263 146.731 C 59.325 135.786 55.631 129.311 55.631 129.311 L 55.602 129.265 L 55.631 129.217 C 55.631 129.217 59.138 122.939 69.942 112.126 C 80.887 101.193 87.348 97.51 87.351 97.504 L 87.399 97.484 L 87.44 97.504 C 87.458 97.51 93.736 101.005 104.541 111.805 C 115.483 122.749 119.174 129.211 119.177 129.22 Z M 118.507 129.262 L 87.399 98.163 L 56.304 129.265 L 87.399 160.373 L 118.507 129.262 Z M 97.059 92.689 C 96.563 92.733 96.086 92.48 95.719 92.007 C 95.983 91.471 96.396 91.11 96.887 91.057 C 97.384 91.004 97.874 91.275 98.235 91.749 C 97.975 92.282 97.559 92.643 97.059 92.689 Z M 98.235 91.749 C 97.893 91.249 97.785 90.712 97.994 90.259 C 98.198 89.799 98.671 89.52 99.257 89.434 C 99.594 89.928 99.705 90.464 99.5 90.924 C 99.297 91.381 98.823 91.67 98.235 91.749 Z M 92.93 90.053 C 92.513 89.636 92.292 89.14 92.392 88.642 C 92.5 88.156 92.906 87.781 93.465 87.579 C 93.896 87.997 94.111 88.504 94 88.987 C 93.898 89.474 93.51 89.845 92.943 90.057 C 93.512 89.891 94.052 89.951 94.423 90.279 C 94.796 90.62 94.92 91.156 94.813 91.749 C 94.246 91.908 93.694 91.842 93.329 91.511 C 92.959 91.173 92.836 90.629 92.937 90.057 C 92.792 90.627 92.461 91.076 91.995 91.222 C 91.51 91.381 90.989 91.213 90.533 90.831 C 90.672 90.259 91.01 89.811 91.48 89.66 C 91.952 89.504 92.481 89.666 92.93 90.053 Z" style="fill: rgb(255, 255, 255); fill-opacity: 1; fill-rule: nonzero; stroke: none;" id="path30"/>
<script xmlns="" id="bw-fido2-page-script"/></svg>