<svg xmlns="http://www.w3.org/2000/svg" viewBox="0 0 986.11 157.82"><defs><style>.cls-1{fill:#3998d4;}.cls-2{fill:#ee742c;}.cls-3{fill:#5d563c;}.cls-4{fill:#e770a8;}.cls-5{fill:#52529f;}.cls-6{fill:#e33b29;}.cls-7{fill:#5f3937;}</style></defs><g id="Capa_2" data-name="Capa 2"><g id="LOGOS"><g id="Grupo_302" data-name="Grupo 302"><g id="Grupo_301" data-name="Grupo 301"><path id="Trazado_314" data-name="Trazado 314" d="M723.17,48.35a7.56,7.56,0,0,0,5.52-7.77,10.15,10.15,0,0,0-9.78-10.51,10.5,10.5,0,0,0-1.37,0H699v37.7H717.6c8.39,0,12.16-4.34,12.16-10.47a8.28,8.28,0,0,0-6.59-8.78ZM706.63,36.63H716.7a4.38,4.38,0,0,1,4.56,4.16V41a4.66,4.66,0,0,1-4.47,4.85c-.2,0-.4,0-.6,0h-9.56Zm0,24.65V52H717a4.52,4.52,0,0,1,4.88,4.13,4.61,4.61,0,0,1,0,.53c0,2.81-1.75,4.67-5.18,4.67Zm57.68-21.55h-7.43V42a14.15,14.15,0,0,0-9.29-3.09,14.31,14.31,0,0,0-13.79,14.8v.1a14.25,14.25,0,0,0,13.62,14.85h.16a14.43,14.43,0,0,0,9.29-3V67.8h7.43ZM748.87,62.2A7.73,7.73,0,0,1,741,54.63q0-.42,0-.84a7.78,7.78,0,0,1,7.12-8.39,6.19,6.19,0,0,1,.74,0,8.15,8.15,0,0,1,8,8.31v.11a8.11,8.11,0,0,1-7.79,8.41Zm40.8-22.84a11.79,11.79,0,0,0-10,5.49V39.73h-7.43V67.81h7.43V58.75c0-7.82,3.15-12,10-12h1.63l.4-7.15a5.72,5.72,0,0,0-2-.22ZM808.6,61.84a7.52,7.52,0,0,1-7.84-7.16,6.58,6.58,0,0,1,0-.89,7.58,7.58,0,0,1,7-8.08,7.46,7.46,0,0,1,7.7,5.56l7.14-2A14.42,14.42,0,0,0,808.6,38.89a14.64,14.64,0,0,0-15,14.24v.66a14.61,14.61,0,0,0,14.34,14.86h.69a14.07,14.07,0,0,0,14.06-10.53l-6.86-1.74A7.15,7.15,0,0,1,808.6,61.84Zm46.2-8.6A14.39,14.39,0,0,0,826,53c0,.26,0,.51,0,.77a14.27,14.27,0,0,0,13.68,14.84l.73,0A13.89,13.89,0,0,0,854.07,60l-6.64-1.41a7.17,7.17,0,0,1-7,3.72,7.28,7.28,0,0,1-7-6.55H854.8Zm-14.24-7.87a6.54,6.54,0,0,1,6.64,5.18H833.64A7,7,0,0,1,840.56,45.37Zm27.29,22.45V27.3h-7.42V67.81Zm20.94-28.76A14.65,14.65,0,0,0,873.5,53c0,.26,0,.51,0,.77A14.65,14.65,0,0,0,888,68.55l.79,0a14.61,14.61,0,0,0,15.13-14.06c0-.22,0-.45,0-.68a14.6,14.6,0,0,0-14.47-14.74Zm0,23.13A8.13,8.13,0,0,1,880.68,54a2.09,2.09,0,0,1,0-.25,8.12,8.12,0,0,1,7.86-8.38h.24a8.1,8.1,0,0,1,7.94,8.26v.13A8.11,8.11,0,0,1,889,62.2h-.16Zm37-23.29A12,12,0,0,0,917,42.27V39.74h-7.43V67.82H917V55.38c0-6.87,2.76-9.68,7-9.68a5.83,5.83,0,0,1,5.73,5.93,4.89,4.89,0,0,1-.05.66V67.82h7.43V50.71a11,11,0,0,0-11.25-11.82Zm46.66.83h-7.43V42a14.12,14.12,0,0,0-9.28-3.09A14.3,14.3,0,0,0,942,53.67v.12a14.25,14.25,0,0,0,13.62,14.85h.16a14.43,14.43,0,0,0,9.29-3V67.8h7.44ZM957.05,62.2a7.74,7.74,0,0,1-7.91-7.56c0-.29,0-.57,0-.85a7.79,7.79,0,0,1,7.13-8.4c.25,0,.5,0,.75,0a8.16,8.16,0,0,1,8,8.32v.1a8.11,8.11,0,0,1-7.79,8.41Z"/><path id="Trazado_315" data-name="Trazado 315" d="M722.5,121.5H708.27l5.79-5.68c5.51-5.4,8.21-8.95,8.21-14.18A11.73,11.73,0,0,0,710.6,89.83a9,9,0,0,0-1.16,0A12.24,12.24,0,0,0,696.2,101c0,.3,0,.6,0,.9l7,1.46c.34-4.78,2.53-6.92,6.19-6.92a5.24,5.24,0,0,1,5.56,4.89c0,.15,0,.29,0,.44a13,13,0,0,1-5.35,9.08l-12.72,12.6v4.95H722.5Zm20.37-31.62c-9.68,0-16.21,8-16.21,19.69s6.53,19.7,16.21,19.7,16.2-7.94,16.2-19.7-6.51-19.69-16.2-19.69Zm0,32.35c-5.18,0-8.45-5.17-8.45-12.66s3.27-12.66,8.45-12.66,8.44,5.18,8.44,12.66-3.27,12.66-8.44,12.66Zm46.2-.73H774.83l5.8-5.68c5.51-5.4,8.21-8.95,8.21-14.18a11.73,11.73,0,0,0-11.67-11.81,9,9,0,0,0-1.16,0A12.24,12.24,0,0,0,762.77,101c0,.3,0,.6,0,.9l7,1.46c.34-4.78,2.53-6.92,6.19-6.92a5.24,5.24,0,0,1,5.56,4.89c0,.15,0,.29,0,.44a13,13,0,0,1-5.34,9.08l-12.72,12.6v4.95h25.66Zm26.8-12a8.37,8.37,0,0,0,4.22-7.82,11.67,11.67,0,0,0-11.52-11.82c-.42,0-.84,0-1.26,0a12.76,12.76,0,0,0-13.44,12v0l7,1.41c.34-4.73,3-6.81,6.47-6.81a5.12,5.12,0,0,1,5.7,4.47,3.9,3.9,0,0,1,0,.59c0,2.76-2,4.45-5.51,4.45h-5v6.64H808c3.71,0,5.68,1.74,5.68,4.56a5.66,5.66,0,0,1-5.95,5.38l-.41,0c-4,0-6.25-2.53-6.81-6.69l-7.15,1.4a13,13,0,0,0,13.92,11.94h0c7.93,0,13.33-4.78,13.33-12A8,8,0,0,0,815.87,109.48ZM845,117.3v-6.43H826.55v6.41Zm28.58,4.22H859.37l5.79-5.69c5.52-5.4,8.22-8.94,8.22-14.18a11.75,11.75,0,0,0-11.67-11.81,11.13,11.13,0,0,0-1.16,0A12.24,12.24,0,0,0,847.31,101c0,.3,0,.6,0,.9l7,1.47c.33-4.79,2.53-6.92,6.19-6.92a5.23,5.23,0,0,1,5.56,4.88c0,.15,0,.29,0,.43a13,13,0,0,1-5.36,9.08l-12.72,12.6v4.95H873.6ZM894,89.89c-9.68,0-16.2,8-16.2,19.7s6.52,19.69,16.2,19.69,16.21-7.93,16.21-19.69S903.65,89.88,894,89.88Zm0,32.36c-5.17,0-8.44-5.18-8.44-12.66S888.8,96.92,894,96.92s8.45,5.18,8.45,12.67-3.28,12.64-8.45,12.64Zm46.2-.73H925.94l5.79-5.69c5.51-5.41,8.2-9,8.2-14.19a11.73,11.73,0,0,0-11.67-11.81,8.7,8.7,0,0,0-1.14,0A12.22,12.22,0,0,0,913.89,101c0,.3,0,.6,0,.9l7,1.46c.34-4.78,2.53-6.92,6.19-6.92a5.24,5.24,0,0,1,5.55,4.9c0,.14,0,.29,0,.43a13,13,0,0,1-5.34,9.08l-12.73,12.6v4.95h25.67Zm34.66-.7v-6.18h-4.67V90.72H960l-17.28,23.06v7h20v7.6h7.43v-7.6Zm-12.1-6.18H951.14l11.59-16.51Z"/><path id="Línea_5" data-name="Línea 5" d="M986.11,4.69H698.43V0H986.11Z"/><path id="Línea_6" data-name="Línea 6" d="M986.11,157.82H698.43v-4.69H986.11Z"/><path id="Trazado_603" data-name="Trazado 603" class="cls-1" d="M22.26,124.25a22.28,22.28,0,0,1-15.74-38L83.85,8.89a22.25,22.25,0,0,1,31.47,0l0,0,15.88,15.87L116.76,39.23c-.36.36-.89.76-1.27,1.15l-46,46L38,117.72a22,22,0,0,1-15.73,6.53"/><path id="Trazado_604" data-name="Trazado 604" class="cls-2" d="M240.08,124.25a22.09,22.09,0,0,1-15.74-6.53l-31.5-31.37L147,40.51c-.36-.39-.89-.77-1.28-1.15L131.23,24.75,147.11,8.89a22.63,22.63,0,0,1,15.74-6.54,21.83,21.83,0,0,1,15.73,6.54L256,86.22a22.28,22.28,0,0,1-15.87,38"/><path id="Trazado_605" data-name="Trazado 605" class="cls-3" d="M116.76,39.23l14.47-14.48L145.7,39.23a22.16,22.16,0,0,0-28.94,0"/><path id="Trazado_606" data-name="Trazado 606" class="cls-4" d="M208.45,155.75a22.13,22.13,0,0,1-15.74-6.53L147.37,104a22,22,0,0,0-31.09-1.17,16.14,16.14,0,0,0-1.17,1.17l-45.34,45.2a22.27,22.27,0,0,1-31.5-31.5L69.64,86.35,83.47,72.52l1.28-1.28-15,15a22.27,22.27,0,0,0,31,32l.46-.46,30-29.84,30,29.84a22.27,22.27,0,0,0,31.5-31.5l-15-15A11.9,11.9,0,0,1,179,72.52l13.83,13.7,31.37,31.5a22.26,22.26,0,0,1,0,31.48l0,0a21.89,21.89,0,0,1-15.74,6.53"/><path id="Trazado_607" data-name="Trazado 607" class="cls-5" d="M176.81,124.25a22.12,22.12,0,0,1-15.73-6.53L131.23,87.9l15.49-15.37a22,22,0,0,1,31-1.28l15,15a22.28,22.28,0,0,1-15.88,38M69.51,86.35l45.84-45.84c.37-.37.9-.77,1.28-1.16l-32,32a6.26,6.26,0,0,0-1.28,1.29L69.51,86.35"/><path id="Trazado_608" data-name="Trazado 608" class="cls-6" d="M85.5,124.25a22.28,22.28,0,0,1-15.74-38l15-15a22,22,0,0,1,31,1.28l15.5,15.37-30,29.83a22.11,22.11,0,0,1-15.76,6.53m107.32-38L179,72.52l-1.27-1.28-32-32c.37.36.9.76,1.28,1.15l45.84,45.84"/><path id="Trazado_609" data-name="Trazado 609" class="cls-7" d="M131.23,87.88,115.74,72.51a22,22,0,0,0-31-1.28l32-32a22.13,22.13,0,0,1,28.94,0l32,32a22,22,0,0,0-31,1.28Z"/></g></g><g id="Grupo_300" data-name="Grupo 300"><path id="Trazado_576" data-name="Trazado 576" d="M328,27.46A18.05,18.05,0,0,1,309,42.36a19.61,19.61,0,0,1-.54-39.22H309a18.37,18.37,0,0,1,18.88,14.41l-9.07,2.13a9.47,9.47,0,0,0-9.81-8,10.75,10.75,0,0,0-10.7,10.83v.29A10.82,10.82,0,0,0,308.77,34H309a9.68,9.68,0,0,0,9.86-8.29Z"/><path id="Trazado_577" data-name="Trazado 577" d="M363.06,41.52h-9V39.28a12.7,12.7,0,0,1-8.74,3.08A14,14,0,0,1,331.6,28.08c0-.21,0-.42,0-.62a14.07,14.07,0,0,1,13.17-14.89l.56,0a12.7,12.7,0,0,1,8.74,3.08V13.39h9Zm-9-14.06a7,7,0,0,0-6.74-7.29h-.15a6.77,6.77,0,0,0-6.8,6.73c0,.19,0,.37,0,.56a6.74,6.74,0,0,0,6.16,7.26l.62,0a7,7,0,0,0,6.89-7.07v-.21"/><path id="Trazado_578" data-name="Trazado 578" d="M401.27,27.46a14,14,0,0,1-13.1,14.87l-.62,0a12.73,12.73,0,0,1-8.75-3.08V51h-9V13.39h9v2.24a12.73,12.73,0,0,1,8.75-3.08A14.05,14.05,0,0,1,401.29,26.9c0,.18,0,.37,0,.56m-8.78,0a6.77,6.77,0,0,0-6.23-7.27l-.55,0a7,7,0,0,0-6.9,7.14v.15a7,7,0,0,0,6.68,7.27h.22a6.73,6.73,0,0,0,6.8-6.67c0-.21,0-.41,0-.61"/><path id="Trazado_579" data-name="Trazado 579" d="M416.35,5.1a5,5,0,0,1-4.91,5h-.3A4.9,4.9,0,0,1,406,5.45c0-.12,0-.23,0-.35A5.06,5.06,0,0,1,411,0h.13a5.12,5.12,0,0,1,5.21,5V5.1m-9.7,8.29h9V41.52h-9Z"/><path id="Trazado_580" data-name="Trazado 580" d="M443.69,40.27A15.3,15.3,0,0,1,436,42.35a10.13,10.13,0,0,1-11.19-8.94,9.41,9.41,0,0,1,0-2.25V20.51h-5.1V13.39h5.1V5.1h9v8.29h8.3v7.12h-8.3v9.75c0,2.92,1.4,4.09,3.76,4.09a9.19,9.19,0,0,0,4.09-1.13Z"/><path id="Trazado_581" data-name="Trazado 581" d="M476.41,41.52h-9V39.28a12.7,12.7,0,0,1-8.74,3.08A14,14,0,0,1,445,28.08c0-.21,0-.42,0-.62a14.05,14.05,0,0,1,13.17-14.89l.55,0a12.7,12.7,0,0,1,8.74,3.08V13.39h9Zm-9-14.06a7,7,0,0,0-6.74-7.29h-.15a6.77,6.77,0,0,0-6.8,6.73c0,.19,0,.37,0,.56a6.74,6.74,0,0,0,6.16,7.26l.62,0a7,7,0,0,0,6.89-7.07v-.21"/><rect id="Rectángulo_60" data-name="Rectángulo 60" x="483.2" y="1.18" width="8.96" height="40.34"/><path id="Trazado_582" data-name="Trazado 582" d="M319.63,97.75H290.39V60.21h29.07v8H299.61v7.06h18.23v7.51H299.61v7.07h20Z"/><path id="Trazado_583" data-name="Trazado 583" d="M353.25,97.75h-9V95.06a11.63,11.63,0,0,1-8.63,3.53,10.69,10.69,0,0,1-11-10.41,11.29,11.29,0,0,1,0-1.3V69.62h8.91V85A5,5,0,0,0,338,90.5a3.87,3.87,0,0,0,.48,0c3.53,0,5.83-2.41,5.83-7.84V69.62h9Z"/><path id="Trazado_584" data-name="Trazado 584" d="M380.43,69.45l-.4,9H378.4c-6.27,0-9.69,3.25-9.69,10.53v8.78h-8.95V69.62h9V75a10.88,10.88,0,0,1,9.69-5.77,8.07,8.07,0,0,1,2,.22"/><path id="Trazado_585" data-name="Trazado 585" d="M413.2,83.69A15.51,15.51,0,1,1,397,68.91l.8,0a14.79,14.79,0,0,1,15.4,14.17c0,.21,0,.42,0,.63m-8.62,0A6.88,6.88,0,1,0,397.79,91a7,7,0,0,0,6.79-7.2v-.08"/><path id="Trazado_586" data-name="Trazado 586" d="M449.29,83.69a14,14,0,0,1-13.1,14.87l-.62,0a12.7,12.7,0,0,1-8.74-3.08v11.76h-9V69.62h9v2.24a12.7,12.7,0,0,1,8.74-3.08,14.06,14.06,0,0,1,13.75,14.34l0,.57m-8.78,0a6.77,6.77,0,0,0-6.23-7.27l-.55,0a7.29,7.29,0,0,0,0,14.57,6.73,6.73,0,0,0,6.8-6.67c0-.2,0-.41,0-.61"/><path id="Trazado_587" data-name="Trazado 587" d="M481.51,86H460.9a6.5,6.5,0,0,0,12,2.2l8,1.62a14,14,0,0,1-14,8.78A14.91,14.91,0,0,1,467,68.77h0a14.27,14.27,0,0,1,14.52,14,8.81,8.81,0,0,1,0,.89Zm-20.45-5.49h11.6A5.61,5.61,0,0,0,467,76.07a6.17,6.17,0,0,0-5.94,4.42"/><path id="Trazado_588" data-name="Trazado 588" d="M515.75,97.75h-9V95.51a12.7,12.7,0,0,1-8.74,3.08A14,14,0,0,1,484.3,84.31c0-.21,0-.41,0-.62A14.07,14.07,0,0,1,497.49,68.8l.55,0a12.69,12.69,0,0,1,8.73,3.08V69.62h9Zm-9-14.06a7,7,0,0,0-6.74-7.29h-.15a7.32,7.32,0,0,0,0,14.57,7,7,0,0,0,6.89-7.07v-.21"/><path id="Trazado_589" data-name="Trazado 589" d="M563.43,97.75h-9V95.51a12.7,12.7,0,0,1-8.74,3.08A14,14,0,0,1,532,84.32q0-.31,0-.63a14,14,0,0,1,13.17-14.88l.55,0a12.66,12.66,0,0,1,8.74,3.09V57.41h9Zm-9-14.06a7,7,0,0,0-6.74-7.28h-.15a6.78,6.78,0,0,0-6.8,6.74c0,.18,0,.37,0,.55A6.73,6.73,0,0,0,547,91a4.24,4.24,0,0,0,.62,0,7,7,0,0,0,6.89-7.06v-.22"/><path id="Trazado_590" data-name="Trazado 590" d="M596.1,86H575.49a6.5,6.5,0,0,0,12,2.2l8,1.62a14,14,0,0,1-14,8.78,14.91,14.91,0,0,1,.06-29.81,14.28,14.28,0,0,1,14.53,14c0,.3,0,.6,0,.9Zm-20.45-5.49h11.61a5.61,5.61,0,0,0-5.66-4.42,6.16,6.16,0,0,0-5.94,4.42"/><rect id="Rectángulo_61" data-name="Rectángulo 61" x="610.96" y="57.41" width="8.96" height="40.34"/><path id="Trazado_591" data-name="Trazado 591" d="M654.6,97.75h-9V95.51a12.66,12.66,0,0,1-8.73,3.08,14,14,0,0,1-13.75-14.28c0-.21,0-.41,0-.62A14.07,14.07,0,0,1,636.34,68.8l.56,0a12.66,12.66,0,0,1,8.73,3.08V69.62h9Zm-9-14.06a7,7,0,0,0-6.74-7.29h-.15a7.32,7.32,0,0,0,0,14.57,7,7,0,0,0,6.89-7.07v-.21"/><path id="Trazado_592" data-name="Trazado 592" d="M305.23,118.11c12.38,0,20.56,7.62,20.56,18.77s-8.18,18.77-20.56,18.77H290.38V118.11Zm-.33,29.53a10.79,10.79,0,0,0,1.68-21.51,9.43,9.43,0,0,0-1.68,0h-5.29v21.51Z"/><path id="Trazado_593" data-name="Trazado 593" d="M358.85,143.88H338.24a6.49,6.49,0,0,0,12,2.2l8,1.62a14,14,0,0,1-13.95,8.79,14.91,14.91,0,1,1,0-29.81,14.27,14.27,0,0,1,14.53,14c0,.3,0,.6,0,.89ZM338.4,138.4H350a5.61,5.61,0,0,0-5.66-4.43,6.15,6.15,0,0,0-5.93,4.43"/><path id="Trazado_594" data-name="Trazado 594" d="M411,138.06v17.59h-8.91V140a4.76,4.76,0,0,0-4.28-5.19l-.42,0c-3.3,0-5.49,2.41-5.49,7.11v13.79h-9V140a4.78,4.78,0,0,0-4.33-5.19l-.43,0c-3.25,0-5.38,2.41-5.38,7.11v13.79h-8.95V127.52h9v2.56a10.66,10.66,0,0,1,8.3-3.4,10.43,10.43,0,0,1,9.19,4.76,12.18,12.18,0,0,1,10-4.76A10.71,10.71,0,0,1,411,137.33c0,.24,0,.49,0,.73"/><path id="Trazado_595" data-name="Trazado 595" d="M446.49,141.59a15.51,15.51,0,1,1-16.2-14.78h.79A14.8,14.8,0,0,1,446.48,141c0,.21,0,.42,0,.63m-8.63,0a6.88,6.88,0,1,0-6.78,7.28,7,7,0,0,0,6.79-7.2v-.08"/><path id="Trazado_596" data-name="Trazado 596" d="M471,143.7l8.24,1.8a14.14,14.14,0,0,1-14.35,11,14.91,14.91,0,1,1-.93-29.8q.47,0,.93,0a14.32,14.32,0,0,1,14.35,10.81l-8.42,2a5.81,5.81,0,0,0-5.94-5,7.07,7.07,0,0,0,0,14.12A6,6,0,0,0,471,143.7"/><path id="Trazado_597" data-name="Trazado 597" d="M504.88,127.36l-.4,9h-1.62c-6.28,0-9.69,3.25-9.69,10.53v8.79h-9V127.53h9v5.37a10.88,10.88,0,0,1,9.69-5.77,7.64,7.64,0,0,1,2,.23"/><path id="Trazado_598" data-name="Trazado 598" d="M538.38,155.65h-9v-2.24a12.69,12.69,0,0,1-8.73,3.08,15,15,0,0,1,0-29.81,12.65,12.65,0,0,1,8.73,3.09v-2.25h9Zm-9-14.06a7,7,0,0,0-6.74-7.28h-.14a7.32,7.32,0,0,0,0,14.57,7,7,0,0,0,6.9-7.06,1.55,1.55,0,0,0,0-.22"/><path id="Trazado_599" data-name="Trazado 599" d="M564.78,143.7l8.24,1.8a14.14,14.14,0,0,1-14.35,11,14.91,14.91,0,1,1-.93-29.8q.46,0,.93,0A14.32,14.32,0,0,1,573,137.48l-8.42,2a5.81,5.81,0,0,0-5.94-5,7.07,7.07,0,0,0,0,14.12,6,6,0,0,0,6.1-4.93"/><path id="Trazado_600" data-name="Trazado 600" d="M588.08,119.24a5,5,0,0,1-4.91,5h-.3a4.9,4.9,0,0,1-5.14-4.64c0-.12,0-.23,0-.34a5.07,5.07,0,0,1,5-5.11h.14a5.12,5.12,0,0,1,5.21,5v.07m-9.69,8.29h9v28.12h-9Z"/><path id="Trazado_601" data-name="Trazado 601" d="M624.17,155.65h-9v-2.24a12.65,12.65,0,0,1-8.74,3.08,15,15,0,0,1,0-29.81,12.66,12.66,0,0,1,8.74,3.09v-2.25h9Zm-9-14.06a7,7,0,0,0-6.74-7.28h-.15a7.32,7.32,0,0,0,0,14.57,7,7,0,0,0,6.9-7.06,1.62,1.62,0,0,0,0-.22"/><path id="Trazado_602" data-name="Trazado 602" d="M513,115.38h10.65l4,8.51h-8Z"/></g></g></g></svg>